HIERARCHY
ROOT ui
{
	 OFFSET 0 0 0
	 CHANNELS 3 XPosition YPosition Z Position
	 EndSite
	 {
	 OFFSET 0 -1 0
	 }
}
ROOT li
{
	 OFFSET 0 0 0
	 CHANNELS 3 XPosition YPosition Z Position
	 EndSite
	 {
	 OFFSET 0 -1 0
	 }
}
ROOT ul
{
	 OFFSET 0 0 0
	 CHANNELS 3 XPosition YPosition Z Position
	 EndSite
	 {
	 OFFSET 0 -1 0
	 }
}
ROOT ll
{
	 OFFSET 0 0 0
	 CHANNELS 3 XPosition YPosition Z Position
	 EndSite
	 {
	 OFFSET 0 -1 0
	 }
}
ROOT tt
{
	 OFFSET 0 0 0
	 CHANNELS 3 XPosition YPosition Z Position
	 EndSite
	 {
	 OFFSET 0 -1 0
	 }
}
ROOT tb
{
	 OFFSET 0 0 0
	 CHANNELS 3 XPosition YPosition Z Position
	 EndSite
	 {
	 OFFSET 0 -1 0
	 }
}
ROOT td
{
	 OFFSET 0 0 0
	 CHANNELS 3 XPosition YPosition Z Position
	 EndSite
	 {
	 OFFSET 0 -1 0
	 }
}
ROOT v
{
	 OFFSET 0 0 0
	 CHANNELS 3 XPosition YPosition Z Position
	 EndSite
	 {
	 OFFSET 0 -1 0
	 }
}
ROOT bn
{
	 OFFSET 0 0 0
	 CHANNELS 3 XPosition YPosition Z Position
	 EndSite
	 {
	 OFFSET 0 -1 0
	 }
}
MOTION
Frames: 13
Frame Time: 0.002
-0.010023310661315918	3.778700157999992E-5	0		0.4606383972167969	-2.3358935546875	0		-1.1442540283203124	-0.002367224931716919	0		-0.8426200561523437	-2.283220458984375	0		1.509427734375	-0.5396414184570313	0		3.22153466796875	-0.05364976119995117	0		4.6848369140625	0.004789196014404297	0		5.5730673828125	0.11477903747558593	0		-0.16861106872558593	5.91689306640625	0		
-0.08556692504882812	-0.0017409839630126954	0		0.44256341552734374	-2.330388671875	0		-1.1328446044921876	-0.008324696540832519	0		-0.78796484375	-2.292742919921875	0		1.542683349609375	-0.570463134765625	0		3.221027099609375	-0.053898433685302734	0		4.6844541015625	0.014376466751098632	0		5.5706484375	0.12011195373535156	0		-0.3008487854003906	5.89795751953125	0		
-0.07716851806640625	0.0019671579599380494	0		0.4601023864746094	-2.336517333984375	0		-1.1234425048828125	-0.0052236437797546385	0		-0.8132193603515625	-2.2858349609375	0		1.5514019775390624	-0.5658375244140625	0		3.24253759765625	-0.04354926681518555	0		4.69463818359375	0.008739871978759766	0		5.5838818359375	0.1368204345703125	0		-0.317771240234375	5.90191748046875	0		
-0.07207813262939453	0.0017407009601593019	0		0.4596580810546875	-2.3253349609375	0		-1.11329931640625	-0.0031070120334625246	0		-0.770927734375	-2.2900576171875	0		1.559869140625	-0.56122021484375	0		3.23150634765625	-0.05068924331665039	0		4.6948564453125	0.019213197708129882	0		5.59051806640625	0.15369059753417968	0		-0.29600344848632815	5.8962294921875	0		
-0.06727896881103515	0.0015279389619827272	0		0.463657470703125	-2.327233642578125	0		-1.119464111328125	-0.0016958500146865845	0		-0.8008628540039062	-2.28706640625	0		1.564742919921875	-0.574567138671875	0		3.26144140625	-0.042552619934082034	0		4.69553466796875	0.014588666915893554	0		5.58690869140625	0.16387333679199217	0		-0.29432476806640623	5.8958974609375	0		
-0.06280597686767578	0.0013299440145492555	0		0.49422955322265627	-2.3325478515625	0		-1.1290185546875	-0.004210319995880127	0		-0.7273932495117188	-2.29868408203125	0		1.536082763671875	-0.5364180908203126	0		3.24492333984375	-0.041740550994873046	0		4.70410791015625	0.023740074157714845	0		5.59015966796875	0.16838713073730469	0		-0.16049742126464844	5.91654296875	0		
-0.05867718505859375	0.0011472909450531007	0		0.4725125732421875	-2.330058837890625	0		-1.1089935302734375	-0.012143797874450683	0		-0.7920317993164062	-2.2901396484375	0		1.5680029296875	-0.567247802734375	0		3.23908837890625	-0.03918446731567383	0		4.703345703125	0.03392167282104492	0		5.58798681640625	0.143453125	0		-0.32562588500976564	5.889798828125	0		
0.02308122634887695	-0.0011511420011520385	0		0.49030230712890627	-2.333174072265625	0		-1.101148681640625	-0.008843995094299317	0		-0.7492335815429687	-2.29218896484375	0		1.5871116943359376	-0.5618977661132812	0		3.253683349609375	-0.05201925277709961	0		4.70099609375	0.02799460220336914	0		5.59295263671875	0.15952584838867187	0		-0.3235206604003906	5.88849609375	0		
-0.044372516632080077	0.006729499816894531	0		0.49472564697265625	-2.333095458984375	0		-1.0926629638671874	-0.0065071449279785155	0		-0.7787536010742188	-2.287154541015625	0		1.55731298828125	-0.523882080078125	0		3.284494384765625	-0.026159257888793946	0		4.70850830078125	0.03579033660888672	0		5.5983896484375	0.17704315185546876	0		-0.30743670654296873	5.89701904296875	0		
0.02963209342956543	-0.0013757870197296143	0		0.5147841186523437	-2.33023828125	0		-1.0675799560546875	-0.009350358009338379	0		-0.7507136840820312	-2.2849033203125	0		1.5545313720703124	-0.5303087158203125	0		3.249467041015625	-0.035474205017089845	0		4.713630859375	0.039481292724609374	0		5.6048525390625	0.16656349182128907	0		-0.28865402221679687	5.8945361328125	0		
-0.04555417251586914	5.702499747276306E-4	0		0.48941259765625	-2.329772216796875	0		-1.1058199462890625	-0.012289649963378906	0		-0.777234619140625	-2.294875244140625	0		1.5544608154296875	-0.5338173828125	0		3.2522724609375	-0.03441746520996094	0		4.71030322265625	0.033142131805419923	0		5.5933642578125	0.17541188049316406	0		-0.287968017578125	5.89432763671875	0		
0.03491777038574219	-0.0015534859895706176	0		0.519633544921875	-2.33205810546875	0		-1.10332421875	-0.012743279457092286	0		-0.771957763671875	-2.292248046875	0		1.5571259765625	-0.5334059448242188	0		3.275682373046875	-0.04072662353515625	0		4.7196923828125	0.0274892520904541	0		5.60578271484375	0.16069845581054687	0		-0.2873929443359375	5.8941396484375	0		
-0.0408551139831543	3.647350072860718E-4	0		0.47265618896484374	-2.3213544921875	0		-1.0870885009765625	-0.011329033851623534	0		-0.767052734375	-2.290583984375	0		1.5962325439453124	-0.5535023803710938	0		3.267080810546875	-0.02571143913269043	0		4.7149814453125	0.03587751007080078	0		5.59968359375	0.1895339813232422	0		-0.32098703002929685	5.888404296875	0		
